/* XPM */
static char * leaf_xpm[] = {
"16 22 3 1",
" 	c None",
".	c #424242",
"%	c #848484",
"                ",
"                ",
"                ",
"                ",
"                ",
".......         ",
".     ..        ",
".     . .       ",
".     ....      ",
". %%%%   .      ",
".        .      ",
". %%%%%  .      ",
".        .      ",
". %%%%%  .      ",
".        .      ",
".        .      ",
"..........      ",
"                ",
"                ",
"                ",
"                ",
"                "};
