/* XPM */
static char * open_xpm[] = {
"16 22 2 1",
" 	c None",
".	c #424242",
"                ",
"                ",
"                ",
"                ",
"                ",
"                ",
" .....          ",
".     ....      ",
".         .     ",
".  ..........   ",
". .          .  ",
". .         .   ",
"..          .   ",
"..         .    ",
".          .    ",
"...........     ",
"                ",
"                ",
"                ",
"                ",
"                ",
"                "};
